# xmcd
#
# Track frame offsets:
#	150
#	45954
#	106011
#	140984
#	175377
#	203278
#	240863
#	261361
#	275148
#	288105
#
# Disc length: 4088 seconds
#
# Revision: 1
# Processed by: cddbd v1.5.2PL0 Copyright (c) Steve Scherf et al.
# Submitted via: audiograbber 1.83.01
#
DISCID=880ff60a
DTITLE=Various Artist - Digital DJ Series 5 Volume 6 CD2
DYEAR=2002
DGENRE=
TTITLE0=Various Artist - Best Of 2001 Mix 2 (Mixed By DJ Diamond)
TTITLE1=Various Artist - The Club Selection (Mixed By Mark 'Hitman' Smith)
TTITLE2=Various Artist - PWL Mania (Mixed By DJ Stonker)
TTITLE3=Blast Featuring VDL - Crazy Man
TTITLE4=State Of Mind - This Is It
TTITLE5=Andy and The Lamboy Featuring Michelle Weeks - The Inside
TTITLE6=Fire Island Featuring Loletta Hollaway - Shout To The Top
TTITLE7=Billy Ocean - Love Really Hurts Without You
TTITLE8=The Contours - Do You Love Me
TTITLE9=The Four Tops - Loco In Acapulco
EXTD=
EXTT0=
EXTT1=
EXTT2=
EXTT3=
EXTT4=
EXTT5=
EXTT6=
EXTT7=
EXTT8=
EXTT9=
PLAYORDER=
